<?xml version="1.0" encoding="UTF-8"?>
<svg id="uuid-9db121c3-1d8e-4875-9126-2ba2019f2bfd" data-name="Capa 1" xmlns="http://www.w3.org/2000/svg" viewBox="0 0 295.98 135.92">
  <g>
    <path d="m0,104.26l5.52-3.11v-41.15l-5.52-3.15v-.64h21.02c2.93,0,5.48.35,7.65,1.05,2.17.7,3.96,1.68,5.4,2.93,1.43,1.25,2.5,2.73,3.22,4.43.71,1.7,1.07,3.56,1.07,5.57,0,2.35-.44,4.44-1.3,6.28-.87,1.84-2.12,3.38-3.74,4.64-1.62,1.25-3.61,2.21-5.96,2.86-2.35.65-5.01.98-7.99.98h-3.49v-1.46l3.55-.03c1.74-.02,3.3-.32,4.69-.9,1.39-.58,2.57-1.42,3.55-2.54.98-1.12,1.74-2.5,2.27-4.15.53-1.65.8-3.55.8-5.72s-.28-4-.83-5.57c-.55-1.57-1.35-2.86-2.37-3.89-1.03-1.03-2.29-1.79-3.78-2.28-1.49-.5-3.16-.74-5.02-.74h-6.07v43.45l6.23,3.15v.64H0v-.64Z" style="fill: #623e2a; stroke-width: 0px;"/>
    <path d="m64.09,104.26l5.45-3.15-4.33-12.15h-18.75l-4.3,12.15h.03l7.11,3.15v.64h-14.99v-.64l6.06-3.11,14.28-39.73-3.22-4.57v-.64h9.37l16.58,44.94,5.72,3.11v.64h-19.02v-.64Zm-17.09-16.79h17.67l-8.83-24.87-8.83,24.87Z" style="fill: #623e2a; stroke-width: 0px;"/>
    <path d="m86.36,104.26l5.52-3.11v-41.15l-5.52-3.15v-.64h21.52c2.73,0,5.13.29,7.21.88,2.08.59,3.81,1.41,5.21,2.47,1.4,1.06,2.45,2.34,3.16,3.82.71,1.49,1.07,3.15,1.07,4.97,0,2.08-.35,3.88-1.07,5.41-.71,1.53-1.67,2.84-2.88,3.91-1.21,1.07-2.61,1.93-4.2,2.59-1.59.65-3.28,1.14-5.06,1.46.59.18,1.22.32,1.89.42.68.1,1.36.18,2.06.22l10.93,18.85,4.77,3.08.03.61h-11.24l-11.91-22.78c-.54.05-1.08.08-1.62.1-.54.02-1.07.03-1.59.03h-2.94l-.17-1.39,3.49-.03c2.07-.02,3.86-.32,5.35-.88,1.49-.56,2.71-1.37,3.67-2.42s1.66-2.33,2.12-3.84c.45-1.51.68-3.21.68-5.11,0-1.65-.2-3.14-.61-4.48-.41-1.34-1.06-2.49-1.95-3.45-.89-.96-2.05-1.7-3.46-2.22-1.41-.52-3.11-.78-5.1-.78h-6.71v43.45l5.52,3.15v.64h-18.17v-.64Z" style="fill: #623e2a; stroke-width: 0px;"/>
    <path d="m186.53,61.8h18.17v.57l-5.52,2.79v36.39l5.52,2.79v.57h-18.17v-.57l5.52-2.76v-36.42l-5.52-2.79v-.57Zm15.47-7.74l-8.12,5.99h-.38l3.22-6.28h5.11l.17.29Z" style="fill: #623e2a; stroke-width: 0px;"/>
    <path d="m226.83,55.42c.2,0,.41,0,.61.02.2.01.42.03.64.05,1.15.07,2.3.22,3.43.46,1.14.24,2.23.52,3.28.85,1.05.33,2.04.69,2.98,1.08.94.39,1.79.78,2.55,1.17l.81,10.56h-.47c-.27-.52-.62-1.25-1.05-2.18-.43-.94-.99-1.95-1.69-3.03-.7-1.08-1.53-2.17-2.5-3.27-.97-1.09-2.13-2.05-3.49-2.86-1.04-.54-2.05-.91-3.03-1.1-.98-.19-1.99-.29-3.03-.29-1.26,0-2.45.2-3.55.59-1.11.39-2.07.96-2.89,1.69-.82.73-1.48,1.64-1.96,2.71-.49,1.07-.74,2.28-.76,3.64-.02,1.35.28,2.56.91,3.62.63,1.06,1.51,2.03,2.62,2.91,1.12.88,2.43,1.72,3.93,2.52,1.5.8,3.11,1.63,4.82,2.49,1.85.93,3.61,1.87,5.28,2.84,1.67.97,3.14,2.05,4.4,3.25,1.26,1.2,2.27,2.54,3.01,4.04.74,1.5,1.1,3.25,1.08,5.26-.05,2.37-.52,4.39-1.44,6.06-.91,1.67-2.17,3.04-3.76,4.11-1.59,1.07-3.46,1.86-5.6,2.35-2.14.5-4.44.74-6.9.74-1.4,0-2.77-.11-4.13-.32-1.35-.21-2.65-.49-3.89-.83-1.24-.34-2.4-.72-3.47-1.15-1.07-.43-2.04-.85-2.89-1.25l-.78-10.76h.47c.86,1.67,1.8,3.28,2.83,4.84,1.03,1.56,2.15,2.93,3.37,4.11,1.22,1.18,2.54,2.13,3.96,2.84s2.96,1.07,4.6,1.07h1.15c1.78,0,3.31-.29,4.59-.86,1.27-.58,2.32-1.32,3.13-2.23.81-.91,1.41-1.93,1.79-3.06.38-1.13.58-2.24.58-3.35.02-1.44-.29-2.74-.95-3.89-.65-1.15-1.52-2.2-2.61-3.15-1.08-.95-2.34-1.82-3.76-2.62-1.42-.8-2.89-1.6-4.4-2.39-1.71-.88-3.42-1.79-5.11-2.74-1.69-.95-3.21-2-4.55-3.15-1.34-1.15-2.43-2.45-3.25-3.91-.82-1.46-1.22-3.14-1.2-5.06.02-2.05.43-3.85,1.23-5.4.8-1.55,1.92-2.84,3.35-3.88,1.43-1.04,3.14-1.82,5.13-2.35,1.98-.53,4.17-.8,6.57-.8Z" style="fill: #623e2a; stroke-width: 0px;"/>
    <path d="m272.21,105.71c-3.45,0-6.63-.62-9.53-1.86-2.9-1.24-5.39-2.97-7.48-5.18-2.09-2.21-3.71-4.86-4.87-7.94-1.16-3.08-1.74-6.45-1.74-10.1,0-3.68.58-7.06,1.74-10.14,1.16-3.08,2.79-5.74,4.87-7.97,2.09-2.23,4.58-3.98,7.48-5.23,2.9-1.25,6.07-1.88,9.53-1.88s6.66.62,9.56,1.86c2.9,1.24,5.4,2.98,7.5,5.21,2.1,2.23,3.73,4.89,4.91,7.97,1.17,3.08,1.76,6.46,1.76,10.14,0,3.68-.58,7.05-1.74,10.12-1.16,3.07-2.79,5.71-4.89,7.94-2.1,2.22-4.6,3.95-7.51,5.19s-6.1,1.86-9.58,1.86Zm0-1.46c2.5,0,4.74-.56,6.7-1.68s3.62-2.7,4.97-4.75c1.35-2.05,2.38-4.53,3.08-7.45.7-2.91,1.05-6.16,1.05-9.75s-.35-6.84-1.05-9.76c-.7-2.92-1.73-5.41-3.08-7.48-1.35-2.06-3.01-3.66-4.97-4.79-1.96-1.13-4.2-1.69-6.7-1.69-2.5,0-4.73.56-6.68,1.69-1.95,1.13-3.6,2.72-4.94,4.79-1.34,2.06-2.36,4.56-3.05,7.48-.69,2.92-1.03,6.18-1.03,9.76s.34,6.8,1.03,9.71c.69,2.91,1.7,5.4,3.05,7.46,1.34,2.06,2.99,3.65,4.94,4.77,1.95,1.12,4.18,1.68,6.68,1.68Z" style="fill: #623e2a; stroke-width: 0px;"/>
    <path d="m177.56,101.15l-16.58-44.94h-9.37v.64l3.22,4.57-14.28,39.73-6.06,3.11v.64h6.51c.07-.17,15.01-42.3,15.01-42.3l15.14,42.3h12.13v-.64l-5.72-3.11Z" style="fill: #623e2a; stroke-width: 0px;"/>
  </g>
  <g>
    <path d="m3.61,135.81v-.1c.94-.1,1.53-.42,1.53-1.53v-11.14h-1.76c-.73,0-1.13.59-1.68,1.53l-1.17,1.99h-.1l.57-3.75h9.48l.57,3.75h-.1l-1.17-1.99c-.55-.94-.96-1.53-1.68-1.53h-1.74v11.14c0,1.11.59,1.43,1.53,1.53v.1H3.61Z" style="fill: #623e2a; stroke-width: 0px;"/>
    <path d="m53.47,135.81v-.1c.76-.1,1.61-.57,1.26-1.53l-.92-2.58h-5.33l-.69,1.93c-.63,1.76.06,2.08.97,2.18v.1h-3.33v-.1c.82-.1,1.55-.61,2.14-2.27l3.48-9.61c-.29-.63-.59-.92-1.28-.92h-.02v-.1h2.22l4.11,11.37c.36,1.01.69,1.43,1.8,1.53v.1h-4.42Zm-2.29-11.66l-2.6,7.23h5.16l-2.56-7.23Z" style="fill: #623e2a; stroke-width: 0px;"/>
    <path d="m95.52,135.81v-.1c.94-.1,1.53-.42,1.53-1.53v-3.86l-3.75-6.35c-.5-.86-.98-1.01-1.74-1.07v-.1h4.3v.1c-1.07.08-1.49.4-1.11,1.07l3.44,5.85,2.69-4.72c.88-1.53.44-2.08-.82-2.2v-.1h3.42v.1c-1.11.11-1.53.8-2.39,2.31l-2.81,4.93v4.03c0,1.11.59,1.43,1.53,1.53v.1h-4.3Z" style="fill: #623e2a; stroke-width: 0px;"/>
    <path d="m139.74,135.81v-.1c.94-.1,1.53-.42,1.53-1.53v-9.75c0-1.11-.59-1.43-1.53-1.53v-.1h5.6c2.85,0,4.95,1.22,4.95,3.35s-1.97,3.35-4.64,3.35h-.86l1.61.57,2.77,4.21c.44.67.96,1.34,2.03,1.43v.1h-2.54l-4.11-6.31h-2.03v4.68c0,1.11.52,1.45,1.34,1.53v.1h-4.11Zm2.77-12.77v6.23h2.87c2.1,0,3.52-.9,3.52-3.12s-1.41-3.12-3.52-3.12h-2.87Z" style="fill: #623e2a; stroke-width: 0px;"/>
    <path d="m245.77,135.81l-7.67-11.32v8.93c0,1.7.59,2.2,1.53,2.29v.1h-3.29v-.1c.94-.1,1.53-.59,1.53-2.29v-9.25l-.23-.34c-.4-.57-.88-.82-1.3-.92v-.1h2.12l7.34,10.84v-8.45c0-1.7-.59-2.2-1.53-2.29v-.1h3.29v.1c-.94.1-1.53.59-1.53,2.29v10.61h-.27Z" style="fill: #623e2a; stroke-width: 0px;"/>
    <path d="m291.46,135.81v-.1c.76-.1,1.61-.57,1.26-1.53l-.92-2.58h-5.33l-.69,1.93c-.63,1.76.06,2.08.97,2.18v.1h-3.33v-.1c.82-.1,1.55-.61,2.14-2.27l3.48-9.61c-.29-.63-.59-.92-1.28-.92h-.02v-.1h2.22l4.11,11.37c.36,1.01.69,1.43,1.8,1.53v.1h-4.42Zm-2.29-11.66l-2.6,7.23h5.16l-2.56-7.23Z" style="fill: #623e2a; stroke-width: 0px;"/>
    <circle cx="193.49" cy="129.31" r="7.01" style="fill: none; stroke: #623e2a; stroke-miterlimit: 10;"/>
    <circle cx="193.49" cy="129.31" r="4.55" style="fill: none; stroke: #623e2a; stroke-miterlimit: 10;"/>
    <circle cx="193.49" cy="129.31" r="1.74" style="fill: #623e2a; stroke-width: 0px;"/>
  </g>
  <g>
    <path d="m88.6,2.27c-.95-.29-1.88-.5-2.79-.61-.91-.11-1.81-.17-2.69-.17-2.64,0-4.96.59-6.95,1.78s-3.67,2.83-5.01,4.94c-1.34,2.11-2.36,4.61-3.05,7.51-.69,2.9-1.03,6.07-1.03,9.53s.37,6.76,1.1,9.66c.73,2.9,1.8,5.38,3.22,7.44,1.41,2.06,3.14,3.66,5.19,4.79,2.05,1.13,4.41,1.69,7.07,1.69.74,0,1.53-.06,2.35-.17.82-.11,1.68-.3,2.56-.58l.3-.17c1.8-.88,3.31-1.98,4.52-3.3,1.21-1.32,2.18-2.66,2.93-4.01.74-1.35,1.31-2.63,1.71-3.82.39-1.2.68-2.1.86-2.71h.61l-.88,12.59c-2.32,1.02-4.63,1.86-6.92,2.52-2.29.67-4.64,1.02-7.06,1.07-.2,0-.41,0-.63.02-.21.01-.43.02-.66.02-3.61,0-6.9-.62-9.88-1.86-2.98-1.24-5.53-2.97-7.65-5.18-2.12-2.21-3.76-4.84-4.92-7.9-1.16-3.06-1.74-6.4-1.74-10.03s.56-7.03,1.69-10.12c1.13-3.09,2.75-5.76,4.86-8.02,2.11-2.26,4.67-4.02,7.68-5.28,3.01-1.26,6.4-1.9,10.17-1.9.29,0,.58,0,.86.02.28.01.56.03.83.05,2.3.11,4.54.49,6.72,1.12,2.18.63,4.39,1.46,6.65,2.47l.88,12.56h-.61c-.14-.43-.3-.99-.51-1.68-.2-.69-.47-1.45-.81-2.28-.34-.83-.75-1.7-1.24-2.61-.49-.9-1.08-1.79-1.78-2.67-.7-.88-1.52-1.71-2.45-2.5-.94-.79-2.01-1.48-3.23-2.06l-.27-.14Z" style="fill: #623e2a; stroke-width: 0px;"/>
    <path d="m173.47,0c.2,0,.41,0,.61.02.2.01.42.03.64.05,1.15.07,2.3.22,3.43.46,1.14.24,2.23.52,3.28.85,1.05.33,2.04.69,2.98,1.08.94.39,1.79.78,2.55,1.17l.81,10.56h-.47c-.27-.52-.62-1.25-1.05-2.18-.43-.94-.99-1.95-1.69-3.03-.7-1.08-1.53-2.17-2.5-3.27-.97-1.09-2.13-2.05-3.49-2.86-1.04-.54-2.05-.91-3.03-1.1-.98-.19-1.99-.29-3.03-.29-1.26,0-2.45.2-3.55.59-1.11.39-2.07.96-2.89,1.69-.82.73-1.48,1.64-1.96,2.71-.49,1.07-.74,2.28-.76,3.64-.02,1.35.28,2.56.91,3.62.63,1.06,1.51,2.03,2.62,2.91,1.12.88,2.43,1.72,3.93,2.52,1.5.8,3.11,1.63,4.82,2.49,1.85.93,3.61,1.87,5.28,2.84,1.67.97,3.14,2.05,4.4,3.25,1.26,1.2,2.27,2.54,3.01,4.04.74,1.5,1.1,3.25,1.08,5.26-.05,2.37-.52,4.39-1.44,6.06-.91,1.67-2.17,3.04-3.76,4.11-1.59,1.07-3.46,1.86-5.6,2.35-2.14.5-4.44.74-6.9.74-1.4,0-2.77-.11-4.13-.32-1.35-.21-2.65-.49-3.89-.83-1.24-.34-2.4-.72-3.47-1.15-1.07-.43-2.04-.85-2.89-1.25l-.78-10.76h.47c.86,1.67,1.8,3.28,2.83,4.84,1.03,1.56,2.15,2.93,3.37,4.11,1.22,1.18,2.54,2.13,3.96,2.84s2.96,1.07,4.6,1.07h1.15c1.78,0,3.31-.29,4.59-.86,1.27-.58,2.32-1.32,3.13-2.23.81-.91,1.41-1.93,1.79-3.06.38-1.13.58-2.24.58-3.35.02-1.44-.29-2.74-.95-3.89-.65-1.15-1.52-2.2-2.61-3.15-1.08-.95-2.34-1.82-3.76-2.62-1.42-.8-2.89-1.6-4.4-2.39-1.71-.88-3.42-1.79-5.11-2.74-1.69-.95-3.21-2-4.55-3.15-1.34-1.15-2.43-2.45-3.25-3.91-.82-1.46-1.22-3.14-1.2-5.06.02-2.05.43-3.85,1.23-5.4.8-1.55,1.92-2.84,3.35-3.88,1.43-1.04,3.14-1.82,5.13-2.35,1.98-.53,4.17-.8,6.57-.8Z" style="fill: #623e2a; stroke-width: 0px;"/>
    <path d="m220.71,48.83l5.45-3.15-4.33-12.15h-18.75l-4.3,12.15h.03l7.11,3.15v.64h-14.99v-.64l6.06-3.11,14.28-39.73-3.22-4.57v-.64h9.37l16.58,44.94,5.72,3.11v.64h-19.02v-.64Zm-17.09-16.79h17.67l-8.83-24.87-8.83,24.87Z" style="fill: #623e2a; stroke-width: 0px;"/>
    <path d="m134.35,48.83l5.45-3.15-4.33-12.15h-18.75l-4.3,12.15h.03l7.11,3.15v.64h-14.99v-.64l6.06-3.11,14.28-39.73-3.22-4.57v-.64h9.37l16.58,44.94,5.72,3.11v.64h-19.02v-.64Zm-17.09-16.79h17.67l-8.83-24.87-8.83,24.87Z" style="fill: #623e2a; stroke-width: 0px;"/>
  </g>
</svg>