<?xml version="1.0" encoding="UTF-8"?>
<svg xmlns="http://www.w3.org/2000/svg" version="1.1" viewBox="0 0 1000 1000">
  <defs>
    <style>
      .cls-1 {
        fill: #f2eddd;
      }
    </style>
  </defs>
  <!-- Generator: Adobe Illustrator 28.6.0, SVG Export Plug-In . SVG Version: 1.2.0 Build 709)  -->
  <g>
    <g id="Capa_1">
      <path class="cls-1" d="M506.67,826.92c-174.36,0-316.19-141.83-316.19-316.15S332.31,194.57,506.67,194.57s316.19,141.83,316.19,316.19-141.83,316.15-316.19,316.15ZM506.67,236.68c-151.13,0-274.08,122.96-274.08,274.08s122.96,274.04,274.08,274.04,274.08-122.92,274.08-274.04-122.96-274.08-274.08-274.08Z"/>
      <path class="cls-1" d="M506.7,723.37c-117.24,0-212.65-95.36-212.65-212.6s95.4-212.65,212.65-212.65,212.6,95.4,212.6,212.65-95.36,212.6-212.6,212.6ZM506.7,340.23c-94.05,0-170.54,76.49-170.54,170.54s76.49,170.49,170.54,170.49,170.49-76.49,170.49-170.49-76.49-170.54-170.49-170.54Z"/>
      <circle class="cls-1" cx="506.67" cy="510.75" r="73.3"/>
    </g>
  </g>
</svg>