<?xml version="1.0" encoding="UTF-8"?>
<svg id="uuid-3f68722b-9f50-4372-b0a2-7be002e4f199" data-name="Capa 1" xmlns="http://www.w3.org/2000/svg" viewBox="0 0 201.45 93.83">
  <g>
    <path d="m2.57,70.46l3.64-2.06v-27.17l-3.64-2.08v-.42h13.87c1.94,0,3.62.23,5.05.69,1.43.46,2.62,1.11,3.56,1.93.95.83,1.65,1.8,2.12,2.93.47,1.12.7,2.35.7,3.67,0,1.55-.29,2.93-.86,4.14-.57,1.21-1.4,2.23-2.47,3.06-1.07.83-2.38,1.46-3.93,1.89-1.55.43-3.31.65-5.27.65h-2.3v-.96l2.35-.02c1.15-.01,2.18-.21,3.09-.59.92-.38,1.7-.94,2.35-1.68.65-.74,1.15-1.65,1.5-2.74.35-1.09.52-2.35.52-3.78s-.18-2.64-.55-3.67c-.37-1.03-.89-1.89-1.57-2.57-.68-.68-1.51-1.18-2.5-1.51-.98-.33-2.09-.49-3.31-.49h-4.01v28.68l4.11,2.08v.42H2.57v-.42Z" style="fill: #fff; stroke-width: 0px;"/>
    <path d="m44.88,70.46l3.6-2.08-2.86-8.02h-12.38l-2.84,8.02h.02l4.69,2.08v.42h-9.9v-.42l4-2.06,9.43-26.23-2.12-3.02v-.42h6.19l10.95,29.67,3.78,2.06v.42h-12.55v-.42Zm-11.28-11.08h11.66l-5.83-16.42-5.83,16.42Z" style="fill: #fff; stroke-width: 0px;"/>
    <path d="m59.58,70.46l3.64-2.06v-27.17l-3.64-2.08v-.42h14.21c1.8,0,3.39.19,4.76.58,1.37.39,2.52.93,3.44,1.63.92.7,1.62,1.54,2.09,2.52.47.98.7,2.08.7,3.28,0,1.37-.23,2.56-.7,3.57-.47,1.01-1.1,1.87-1.9,2.58-.8.71-1.72,1.28-2.77,1.71-1.05.43-2.16.75-3.34.96.39.12.8.21,1.25.28.45.07.9.12,1.36.15l7.22,12.44,3.15,2.03.02.4h-7.42l-7.86-15.03c-.36.03-.71.05-1.07.07-.36.01-.71.02-1.05.02h-1.94l-.11-.92,2.3-.02c1.37-.01,2.55-.21,3.53-.58.98-.37,1.79-.9,2.42-1.6s1.1-1.54,1.4-2.54c.3-1,.45-2.12.45-3.37,0-1.09-.13-2.07-.4-2.96-.27-.89-.7-1.65-1.29-2.28-.59-.63-1.35-1.12-2.28-1.46-.93-.34-2.06-.51-3.37-.51h-4.43v28.68l3.64,2.08v.42h-12v-.42Z" style="fill: #fff; stroke-width: 0px;"/>
    <path d="m125.71,42.43h12v.38l-3.64,1.84v24.02l3.64,1.84v.38h-12v-.38l3.64-1.82v-24.04l-3.64-1.84v-.38Zm10.21-5.11l-5.36,3.96h-.25l2.13-4.15h3.37l.11.19Z" style="fill: #fff; stroke-width: 0px;"/>
    <path d="m152.31,38.22c.13,0,.27,0,.4.01.13,0,.28.02.42.03.76.04,1.52.15,2.27.3.75.16,1.47.34,2.17.56.69.22,1.35.45,1.97.71.62.26,1.18.52,1.69.77l.54,6.97h-.31c-.18-.34-.41-.82-.69-1.44-.28-.62-.66-1.28-1.12-2-.46-.71-1.01-1.43-1.65-2.16-.64-.72-1.41-1.35-2.3-1.89-.69-.36-1.35-.6-2-.73-.65-.13-1.31-.19-2-.19-.83,0-1.62.13-2.35.39-.73.26-1.37.63-1.91,1.12-.54.48-.98,1.08-1.3,1.79-.32.71-.49,1.51-.5,2.4-.01.89.19,1.69.6,2.39.42.7.99,1.34,1.73,1.92.74.58,1.6,1.14,2.59,1.66.99.53,2.05,1.08,3.18,1.64,1.22.61,2.38,1.24,3.48,1.88,1.1.64,2.07,1.36,2.9,2.14.83.79,1.5,1.68,1.99,2.67.49.99.73,2.15.71,3.47-.03,1.56-.35,2.9-.95,4-.6,1.1-1.43,2.01-2.48,2.71-1.05.71-2.28,1.23-3.7,1.55-1.42.33-2.93.49-4.56.49-.92,0-1.83-.07-2.73-.21-.89-.14-1.75-.32-2.57-.55-.82-.22-1.58-.48-2.29-.76-.71-.28-1.34-.56-1.91-.83l-.51-7.1h.31c.57,1.1,1.19,2.17,1.87,3.19.68,1.03,1.42,1.93,2.22,2.71.8.78,1.68,1.41,2.61,1.88s1.95.7,3.04.7h.76c1.18,0,2.19-.19,3.03-.57.84-.38,1.53-.87,2.07-1.47s.93-1.28,1.18-2.02c.25-.74.38-1.48.38-2.21.01-.95-.19-1.81-.63-2.57-.43-.76-1.01-1.45-1.72-2.08-.71-.63-1.54-1.2-2.48-1.73-.94-.53-1.91-1.05-2.9-1.57-1.13-.58-2.26-1.18-3.37-1.81-1.12-.63-2.12-1.32-3-2.08-.89-.76-1.6-1.62-2.14-2.58-.54-.96-.81-2.07-.79-3.34.01-1.35.29-2.54.82-3.56.53-1.02,1.27-1.87,2.21-2.56.95-.68,2.07-1.2,3.38-1.55,1.31-.35,2.76-.53,4.33-.53Z" style="fill: #fff; stroke-width: 0px;"/>
    <path d="m182.27,71.42c-2.28,0-4.38-.41-6.29-1.23-1.91-.82-3.56-1.96-4.94-3.42-1.38-1.46-2.45-3.21-3.22-5.24-.77-2.03-1.15-4.26-1.15-6.67s.38-4.66,1.15-6.69c.77-2.03,1.84-3.79,3.22-5.26,1.38-1.47,3.02-2.62,4.94-3.45,1.91-.83,4.01-1.24,6.29-1.24,2.29,0,4.4.41,6.31,1.23,1.91.82,3.56,1.97,4.95,3.44,1.39,1.47,2.46,3.23,3.24,5.26.77,2.03,1.16,4.26,1.16,6.69s-.38,4.65-1.15,6.68c-.77,2.03-1.84,3.77-3.23,5.24-1.39,1.47-3.04,2.61-4.96,3.43s-4.03,1.23-6.32,1.23Zm0-.96c1.65,0,3.13-.37,4.42-1.11s2.39-1.78,3.28-3.14c.89-1.35,1.57-2.99,2.03-4.91.46-1.92.69-4.07.69-6.43,0-2.37-.23-4.52-.69-6.45-.46-1.93-1.14-3.57-2.03-4.94-.89-1.36-1.99-2.42-3.28-3.16-1.3-.74-2.77-1.12-4.42-1.12s-3.12.37-4.41,1.12c-1.29.74-2.38,1.8-3.26,3.16-.89,1.36-1.56,3.01-2.01,4.94-.45,1.93-.68,4.08-.68,6.45s.23,4.49.68,6.41c.45,1.92,1.12,3.56,2.01,4.93.89,1.36,1.97,2.41,3.26,3.15,1.29.74,2.76,1.11,4.41,1.11Z" style="fill: #fff; stroke-width: 0px;"/>
    <path d="m119.79,68.4l-10.95-29.67h-6.19v.42l2.12,3.02-9.43,26.23-4,2.06v.42h4.3c.05-.11,9.91-27.92,9.91-27.92l10,27.92h8.01v-.42l-3.78-2.06Z" style="fill: #fff; stroke-width: 0px;"/>
  </g>
  <path d="m4.95,91.29v-.06c.62-.06,1.01-.28,1.01-1.01v-7.36h-1.16c-.48,0-.74.39-1.11,1.01l-.77,1.31h-.06l.38-2.47h6.26l.38,2.47h-.06l-.77-1.31c-.37-.62-.63-1.01-1.11-1.01h-1.15v7.36c0,.73.39.95,1.01,1.01v.06h-2.84Z" style="fill: #fff; stroke-width: 0px;"/>
  <path d="m37.87,91.29v-.06c.5-.06,1.06-.38.83-1.01l-.61-1.7h-3.52l-.45,1.27c-.42,1.16.04,1.38.64,1.44v.06h-2.2v-.06c.54-.06,1.02-.4,1.41-1.5l2.3-6.35c-.19-.42-.39-.61-.85-.61h-.01v-.06h1.46l2.71,7.51c.24.67.45.95,1.19,1.01v.06h-2.91Zm-1.51-7.7l-1.72,4.77h3.41l-1.69-4.77Z" style="fill: #fff; stroke-width: 0px;"/>
  <path d="m65.63,91.29v-.06c.62-.06,1.01-.28,1.01-1.01v-2.55l-2.47-4.19c-.33-.57-.64-.67-1.15-.71v-.06h2.84v.06c-.71.05-.98.27-.73.71l2.27,3.86,1.78-3.12c.58-1.01.29-1.38-.54-1.45v-.06h2.26v.06c-.73.08-1.01.53-1.58,1.53l-1.85,3.26v2.66c0,.73.39.95,1.01,1.01v.06h-2.84Z" style="fill: #fff; stroke-width: 0px;"/>
  <path d="m94.82,91.29v-.06c.62-.06,1.01-.28,1.01-1.01v-6.44c0-.73-.39-.95-1.01-1.01v-.06h3.7c1.88,0,3.27.81,3.27,2.21s-1.3,2.21-3.07,2.21h-.57l1.06.38,1.83,2.78c.29.44.63.88,1.34.95v.06h-1.68l-2.71-4.16h-1.34v3.09c0,.73.34.96.88,1.01v.06h-2.71Zm1.83-8.43v4.11h1.89c1.39,0,2.32-.59,2.32-2.06s-.93-2.06-2.32-2.06h-1.89Z" style="fill: #fff; stroke-width: 0px;"/>
  <path d="m164.81,91.29l-5.06-7.47v5.89c0,1.12.39,1.45,1.01,1.51v.06h-2.17v-.06c.62-.06,1.01-.39,1.01-1.51v-6.11l-.15-.23c-.26-.38-.58-.54-.86-.61v-.06h1.4l4.85,7.15v-5.58c0-1.12-.39-1.45-1.01-1.51v-.06h2.17v.06c-.62.06-1.01.39-1.01,1.51v7h-.18Z" style="fill: #fff; stroke-width: 0px;"/>
  <path d="m194.97,91.29v-.06c.5-.06,1.06-.38.83-1.01l-.61-1.7h-3.52l-.45,1.27c-.42,1.16.04,1.38.64,1.44v.06h-2.2v-.06c.54-.06,1.02-.4,1.41-1.5l2.3-6.35c-.19-.42-.39-.61-.85-.61h-.01v-.06h1.46l2.71,7.51c.24.67.45.95,1.19,1.01v.06h-2.91Zm-1.51-7.7l-1.72,4.77h3.41l-1.69-4.77Z" style="fill: #fff; stroke-width: 0px;"/>
  <path d="m130.3,91.95c-2.73,0-4.96-2.22-4.96-4.96s2.22-4.96,4.96-4.96,4.96,2.22,4.96,4.96-2.22,4.96-4.96,4.96Zm0-9.25c-2.37,0-4.3,1.93-4.3,4.3s1.93,4.3,4.3,4.3,4.3-1.93,4.3-4.3-1.93-4.3-4.3-4.3Z" style="fill: #fff; stroke-width: 0px;"/>
  <path d="m130.3,90.33c-1.84,0-3.33-1.5-3.33-3.33s1.5-3.33,3.33-3.33,3.33,1.5,3.33,3.33-1.5,3.33-3.33,3.33Zm0-6.01c-1.47,0-2.67,1.2-2.67,2.67s1.2,2.67,2.67,2.67,2.67-1.2,2.67-2.67-1.2-2.67-2.67-2.67Z" style="fill: #fff; stroke-width: 0px;"/>
  <circle cx="130.3" cy="87" r="1.15" style="fill: #fff; stroke-width: 0px;"/>
  <g>
    <path d="m61.06,3.13c-.63-.19-1.24-.33-1.84-.4-.6-.07-1.2-.11-1.78-.11-1.74,0-3.27.39-4.59,1.17s-2.42,1.87-3.31,3.26c-.89,1.39-1.56,3.05-2.01,4.96-.45,1.91-.68,4.01-.68,6.29s.24,4.46.73,6.38c.48,1.91,1.19,3.55,2.12,4.91.93,1.36,2.07,2.42,3.43,3.16,1.36.75,2.91,1.12,4.67,1.12.49,0,1.01-.04,1.55-.11.54-.07,1.11-.2,1.69-.38l.2-.11c1.19-.58,2.19-1.31,2.98-2.18.8-.87,1.44-1.75,1.93-2.65.49-.89.87-1.73,1.13-2.52.26-.79.45-1.39.57-1.79h.4l-.58,8.31c-1.53.67-3.06,1.23-4.57,1.66-1.51.44-3.06.67-4.66.7-.13,0-.27,0-.41.01-.14,0-.29.01-.44.01-2.38,0-4.56-.41-6.52-1.23-1.97-.82-3.65-1.96-5.05-3.42-1.4-1.46-2.48-3.2-3.25-5.22-.77-2.02-1.15-4.23-1.15-6.62s.37-4.64,1.12-6.68c.74-2.04,1.81-3.81,3.21-5.29,1.39-1.49,3.08-2.65,5.07-3.49,1.99-.83,4.23-1.25,6.71-1.25.19,0,.38,0,.57.01.19,0,.37.02.55.03,1.52.07,3,.32,4.43.74,1.44.42,2.9.96,4.39,1.63l.58,8.29h-.4c-.09-.28-.2-.65-.34-1.11-.13-.45-.31-.96-.54-1.51-.22-.55-.5-1.12-.82-1.72-.32-.6-.71-1.18-1.17-1.76-.46-.58-1-1.13-1.62-1.65-.62-.52-1.33-.98-2.13-1.36l-.18-.09Z" style="fill: #fff; stroke-width: 0px;"/>
    <path d="m117.08,1.63c.13,0,.27,0,.4.01.13,0,.28.02.42.03.76.04,1.52.15,2.27.3.75.16,1.47.34,2.17.56.69.22,1.35.45,1.97.71.62.26,1.18.52,1.69.77l.54,6.97h-.31c-.18-.34-.41-.82-.69-1.44-.28-.62-.66-1.28-1.12-2-.46-.71-1.01-1.43-1.65-2.16-.64-.72-1.41-1.35-2.3-1.89-.69-.36-1.35-.6-2-.73-.65-.13-1.31-.19-2-.19-.83,0-1.62.13-2.35.39-.73.26-1.37.63-1.91,1.12-.54.48-.98,1.08-1.3,1.79-.32.71-.49,1.51-.5,2.4-.01.89.19,1.69.6,2.39.42.7.99,1.34,1.73,1.92.74.58,1.6,1.14,2.59,1.66.99.53,2.05,1.08,3.18,1.64,1.22.61,2.38,1.24,3.48,1.88,1.1.64,2.07,1.36,2.9,2.14.83.79,1.5,1.68,1.99,2.67.49.99.73,2.15.71,3.47-.03,1.56-.35,2.9-.95,4-.6,1.1-1.43,2.01-2.48,2.71-1.05.71-2.28,1.23-3.7,1.55-1.42.33-2.93.49-4.56.49-.92,0-1.83-.07-2.73-.21-.89-.14-1.75-.32-2.57-.55-.82-.22-1.58-.48-2.29-.76-.71-.28-1.34-.56-1.91-.83l-.51-7.1h.31c.57,1.1,1.19,2.17,1.87,3.19.68,1.03,1.42,1.93,2.22,2.71.8.78,1.68,1.41,2.61,1.88s1.95.7,3.04.7h.76c1.18,0,2.19-.19,3.03-.57.84-.38,1.53-.87,2.07-1.47.54-.6.93-1.28,1.18-2.02.25-.74.38-1.48.38-2.21.01-.95-.19-1.81-.63-2.57-.43-.76-1.01-1.45-1.72-2.08-.71-.63-1.54-1.2-2.48-1.73-.94-.53-1.91-1.05-2.9-1.57-1.13-.58-2.26-1.18-3.37-1.81-1.12-.63-2.12-1.32-3-2.08-.89-.76-1.6-1.62-2.14-2.58-.54-.96-.81-2.07-.79-3.34.01-1.35.29-2.54.82-3.56.53-1.02,1.27-1.87,2.21-2.56.95-.68,2.07-1.2,3.38-1.55,1.31-.35,2.76-.53,4.33-.53Z" style="fill: #fff; stroke-width: 0px;"/>
    <path d="m148.27,33.87l3.6-2.08-2.86-8.02h-12.38l-2.84,8.02h.02l4.69,2.08v.42h-9.9v-.42l4-2.06,9.43-26.23-2.12-3.02v-.42h6.19l10.95,29.67,3.78,2.06v.42h-12.55v-.42Zm-11.28-11.08h11.66l-5.83-16.42-5.83,16.42Z" style="fill: #fff; stroke-width: 0px;"/>
    <path d="m91.26,33.87l3.6-2.08-2.86-8.02h-12.38l-2.84,8.02h.02l4.69,2.08v.42h-9.9v-.42l4-2.06,9.43-26.23-2.12-3.02v-.42h6.19l10.95,29.67,3.78,2.06v.42h-12.55v-.42Zm-11.28-11.08h11.66l-5.83-16.42-5.83,16.42Z" style="fill: #fff; stroke-width: 0px;"/>
  </g>
</svg>